<svg xmlns="http://www.w3.org/2000/svg" viewBox="0 0 1200 630" width="1200" height="630">
  <defs>
    <linearGradient id="bgGradient" x1="0%" y1="0%" x2="100%" y2="100%">
      <stop offset="0%" style="stop-color:#f8fafc;stop-opacity:1" />
      <stop offset="100%" style="stop-color:#e2e8f0;stop-opacity:1" />
    </linearGradient>
    <linearGradient id="cardGradient" x1="0%" y1="0%" x2="100%" y2="100%">
      <stop offset="0%" style="stop-color:#3b82f6;stop-opacity:1" />
      <stop offset="100%" style="stop-color:#1d4ed8;stop-opacity:1" />
    </linearGradient>
  </defs>

  <!-- Background -->
  <rect width="1200" height="630" fill="url(#bgGradient)"/>

  <!-- Main card -->
  <rect x="100" y="100" width="1000" height="430" rx="20" ry="20" fill="white" stroke="#e2e8f0" stroke-width="2"/>

  <!-- Header -->
  <rect x="100" y="100" width="1000" height="80" rx="20" ry="20" fill="url(#cardGradient)"/>
  <text x="150" y="150" font-family="system-ui, -apple-system, sans-serif" font-size="36" font-weight="bold" fill="white">
    Enterprise ERP System
  </text>

  <!-- Content area -->
  <g transform="translate(150, 220)">
    <!-- Icon -->
    <circle cx="40" cy="40" r="35" fill="#3b82f6" opacity="0.1"/>
    <g fill="#3b82f6" transform="translate(15, 15)">
      <!-- Bar chart -->
      <rect x="0" y="20" width="4" height="25"/>
      <rect x="8" y="15" width="4" height="30"/>
      <rect x="16" y="18" width="4" height="27"/>
      <rect x="24" y="12" width="4" height="33"/>
      <rect x="32" y="16" width="4" height="29"/>
      <!-- Trend line -->
      <path d="M2 32 L10 25 L18 28 L26 22 L34 26" stroke="#3b82f6" stroke-width="2" fill="none" stroke-linecap="round"/>
    </g>

    <!-- Text content -->
    <g transform="translate(100, 0)">
      <text font-family="system-ui, -apple-system, sans-serif" font-size="28" font-weight="600" fill="#1e293b">
        Complete Business Management Solution
      </text>
      <text x="0" y="40" font-family="system-ui, -apple-system, sans-serif" font-size="18" fill="#64748b">
        Inventory • Sales • Finance • HR • Analytics
      </text>
      <text x="0" y="70" font-family="system-ui, -apple-system, sans-serif" font-size="16" fill="#94a3b8">
        Modern, scalable ERP system for growing businesses
      </text>
    </g>
  </g>

  <!-- Footer -->
  <text x="600" y="580" font-family="system-ui, -apple-system, sans-serif" font-size="14" fill="#64748b" text-anchor="middle">
    erp-system.com
  </text>
</svg>